<svg viewBox="0 0 24 24" fill="none" xmlns="http://www.w3.org/2000/svg">
	<path fill-rule="evenodd" clip-rule="evenodd" d="M15.7071 11.2927C15.8946 11.4802 15.9999 11.7345 15.9999 11.9997C15.9999 12.2648 15.8946 12.5191 15.7071 12.7067L10.0501 18.3637C9.95785 18.4592 9.84751 18.5353 9.7255 18.5878C9.6035 18.6402 9.47228 18.6678 9.3395 18.6689C9.20672 18.6701 9.07504 18.6448 8.95215 18.5945C8.82925 18.5442 8.7176 18.4699 8.6237 18.3761C8.52981 18.2822 8.45556 18.1705 8.40528 18.0476C8.355 17.9247 8.32969 17.793 8.33085 17.6603C8.332 17.5275 8.35959 17.3963 8.412 17.2743C8.46441 17.1522 8.54059 17.0419 8.6361 16.9497L13.5861 11.9997L8.6361 7.04966C8.45394 6.86105 8.35315 6.60845 8.35542 6.34626C8.3577 6.08406 8.46287 5.83325 8.64828 5.64784C8.83369 5.46243 9.0845 5.35726 9.3467 5.35498C9.60889 5.3527 9.8615 5.4535 10.0501 5.63566L15.7071 11.2927Z"/>
</svg>
