<svg fill="none" xmlns="http://www.w3.org/2000/svg">
	<circle cx="16" cy="16" r="16" fill="#050404"/>
	<path d="M7 25l1.265-4.622a8.9 8.9 0 01-1.19-4.46C7.077 11.001 11.078 7 15.995 7a8.86 8.86 0 016.31 2.616 8.868 8.868 0 012.61 6.31c-.003 4.918-4.004 8.92-8.92 8.92a8.926 8.926 0 01-4.266-1.087L7 25zm4.948-2.855c1.257.746 2.457 1.193 4.044 1.194 4.086 0 7.414-3.326 7.416-7.414a7.411 7.411 0 00-7.41-7.419c-4.09 0-7.415 3.325-7.417 7.413 0 1.669.488 2.918 1.31 4.226l-.75 2.736 2.807-.736zm8.54-4.098c-.055-.093-.204-.149-.427-.26-.223-.112-1.319-.651-1.524-.726-.204-.074-.352-.111-.502.112-.148.223-.576.725-.705.874-.13.148-.26.167-.483.055-.223-.111-.942-.346-1.793-1.106-.662-.591-1.11-1.32-1.24-1.544-.13-.223-.013-.344.098-.455.1-.1.223-.26.334-.39.114-.13.15-.223.226-.372.074-.148.037-.279-.02-.39-.056-.112-.501-1.209-.686-1.655-.182-.434-.366-.376-.502-.383l-.428-.007a.817.817 0 00-.594.279c-.204.223-.78.762-.78 1.86 0 1.097.8 2.156.91 2.305.112.148 1.572 2.4 3.807 3.365.532.23.948.367 1.27.47.535.169 1.02.145 1.405.088.428-.064 1.318-.54 1.504-1.06.186-.521.186-.967.13-1.06z" fill="#fff"/>
</svg>