<svg viewBox="0 0 64 65" fill="none" xmlns="http://www.w3.org/2000/svg">
<rect y="0.640137" width="64" height="64" rx="32" fill="#05525B"/>
<path d="M24.0002 45.3333C23.2668 45.3333 22.6388 45.0719 22.1162 44.5493C21.5935 44.0266 21.3326 43.399 21.3335 42.6666V29.3333C21.3335 28.5999 21.5948 27.9719 22.1175 27.4493C22.6402 26.9266 23.2677 26.6657 24.0002 26.6666H25.3335V23.9999C25.3335 22.1555 25.9837 20.583 27.2842 19.2826C28.5846 17.9821 30.1566 17.3324 32.0002 17.3333C33.8446 17.3333 35.4171 17.9835 36.7175 19.2839C38.0179 20.5844 38.6677 22.1564 38.6668 23.9999V26.6666H40.0002C40.7335 26.6666 41.3615 26.9279 41.8842 27.4506C42.4068 27.9733 42.6677 28.6008 42.6668 29.3333V42.6666C42.6668 43.3999 42.4055 44.0279 41.8828 44.5506C41.3602 45.0732 40.7326 45.3341 40.0002 45.3333H24.0002ZM32.0002 38.6666C32.7335 38.6666 33.3615 38.4053 33.8842 37.8826C34.4068 37.3599 34.6677 36.7324 34.6668 35.9999C34.6668 35.2666 34.4055 34.6386 33.8828 34.1159C33.3602 33.5933 32.7326 33.3324 32.0002 33.3333C31.2668 33.3333 30.6388 33.5946 30.1162 34.1173C29.5935 34.6399 29.3326 35.2675 29.3335 35.9999C29.3335 36.7333 29.5948 37.3613 30.1175 37.8839C30.6402 38.4066 31.2677 38.6675 32.0002 38.6666ZM28.0002 26.6666H36.0002V23.9999C36.0002 22.8888 35.6113 21.9444 34.8335 21.1666C34.0557 20.3888 33.1113 19.9999 32.0002 19.9999C30.8891 19.9999 29.9446 20.3888 29.1668 21.1666C28.3891 21.9444 28.0002 22.8888 28.0002 23.9999V26.6666Z" fill="white"/>
</svg>
