<svg viewBox="0 0 24 25" fill="none" xmlns="http://www.w3.org/2000/svg">
	<path fill-rule="evenodd" clip-rule="evenodd" d="M8.2929 13.2073C8.10543 13.0198 8.00011 12.7655 8.00011 12.5003C8.00011 12.2352 8.10543 11.9809 8.2929 11.7933L13.9499 6.13634C14.0421 6.04083 14.1525 5.96465 14.2745 5.91224C14.3965 5.85983 14.5277 5.83225 14.6605 5.83109C14.7933 5.82994 14.925 5.85524 15.0479 5.90552C15.1708 5.9558 15.2824 6.03006 15.3763 6.12395C15.4702 6.21784 15.5444 6.32949 15.5947 6.45239C15.645 6.57529 15.6703 6.70696 15.6692 6.83974C15.668 6.97252 15.6404 7.10374 15.588 7.22575C15.5356 7.34775 15.4594 7.4581 15.3639 7.55034L10.4139 12.5003L15.3639 17.4503C15.5461 17.6389 15.6469 17.8915 15.6446 18.1537C15.6423 18.4159 15.5371 18.6668 15.3517 18.8522C15.1663 19.0376 14.9155 19.1427 14.6533 19.145C14.3911 19.1473 14.1385 19.0465 13.9499 18.8643L8.2929 13.2073Z"/>
</svg>
