<svg viewBox="0 0 40 40" fill="none" xmlns="http://www.w3.org/2000/svg">
<rect width="40" height="40" rx="20" fill="#008899"/>
<path d="M24.8474 25.6001C18.4491 25.6091 13.5929 20.6951 13.5996 14.3523C13.5996 13.9376 13.9356 13.6001 14.3496 13.6001H16.3296C16.7009 13.6001 17.0166 13.8731 17.0714 14.2406C17.2019 15.1219 17.4583 15.9799 17.8326 16.7883L17.9099 16.9548C17.9618 17.0669 17.9729 17.1935 17.9414 17.3129C17.9099 17.4323 17.8378 17.537 17.7374 17.6088C17.1239 18.0468 16.8899 18.9281 17.3676 19.6151C17.9691 20.4801 18.7198 21.2311 19.5846 21.8328C20.2724 22.3098 21.1536 22.0758 21.5909 21.4631C21.6627 21.3624 21.7674 21.2899 21.887 21.2583C22.0065 21.2267 22.1334 21.2378 22.2456 21.2898L22.4114 21.3663C23.2199 21.7413 24.0779 21.9978 24.9591 22.1283C25.3266 22.1831 25.5996 22.4988 25.5996 22.8708V24.8501C25.5996 24.9486 25.5802 25.0462 25.5424 25.1373C25.5047 25.2283 25.4494 25.311 25.3797 25.3807C25.31 25.4503 25.2272 25.5056 25.1361 25.5432C25.045 25.5809 24.9474 25.6002 24.8489 25.6001H24.8474Z" fill="white"/>
</svg>
