<svg viewBox="0 0 40 40" fill="none" xmlns="http://www.w3.org/2000/svg">
<rect width="40" height="40" rx="20" fill="#008899"/>
<path d="M24.3996 17.6L19.5996 20.6L14.7996 17.6V16.4L19.5996 19.4L24.3996 16.4M24.3996 15.2H14.7996C14.1336 15.2 13.5996 15.734 13.5996 16.4V23.6C13.5996 23.9182 13.726 24.2234 13.9511 24.4485C14.1761 24.6735 14.4813 24.8 14.7996 24.8H24.3996C24.7179 24.8 25.0231 24.6735 25.2481 24.4485C25.4732 24.2234 25.5996 23.9182 25.5996 23.6V16.4C25.5996 16.0817 25.4732 15.7765 25.2481 15.5514C25.0231 15.3264 24.7179 15.2 24.3996 15.2Z" fill="white"/>
</svg>
