<svg viewBox="0 0 24 24" fill="none" xmlns="http://www.w3.org/2000/svg">
	<path fill-rule="evenodd" clip-rule="evenodd" d="M11.2929 8.29266C11.4804 8.10519 11.7347 7.99987 11.9999 7.99987C12.2651 7.99987 12.5194 8.10519 12.7069 8.29266L18.3639 13.9497C18.4594 14.0419 18.5356 14.1522 18.588 14.2743C18.6404 14.3963 18.668 14.5275 18.6692 14.6603C18.6703 14.793 18.645 14.9247 18.5947 15.0476C18.5444 15.1705 18.4702 15.2822 18.3763 15.3761C18.2824 15.4699 18.1708 15.5442 18.0479 15.5945C17.925 15.6448 17.7933 15.6701 17.6605 15.6689C17.5277 15.6678 17.3965 15.6402 17.2745 15.5878C17.1525 15.5353 17.0421 15.4592 16.9499 15.3637L11.9999 10.4137L7.0499 15.3637C6.8613 15.5458 6.6087 15.6466 6.3465 15.6443C6.0843 15.6421 5.83349 15.5369 5.64808 15.3515C5.46268 15.1661 5.3575 14.9153 5.35523 14.6531C5.35295 14.3909 5.45374 14.1383 5.6359 13.9497L11.2929 8.29266Z"/>
</svg>
