<svg viewBox="0 0 24 24" fill="none" xmlns="http://www.w3.org/2000/svg">
	<path fill-rule="evenodd" clip-rule="evenodd" d="M18.7497 3.40078C18.3843 2.98671 17.7523 2.94731 17.3383 3.31277C16.9242 3.67824 16.8848 4.31018 17.2503 4.72425C18.9623 6.66397 20 9.20957 20 12C20 14.7904 18.9623 17.336 17.2503 19.2757C16.8848 19.6898 16.9242 20.3217 17.3383 20.6872C17.7523 21.0527 18.3843 21.0133 18.7497 20.5992C20.7719 18.3081 22 15.2963 22 12C22 8.70372 20.7719 5.69186 18.7497 3.40078ZM11.4332 4.09872C11.7797 4.26524 12 4.61562 12 5.00002V19C12 19.3844 11.7797 19.7348 11.4332 19.9013C11.0867 20.0678 10.6755 20.021 10.3753 19.7809L5.64922 16H2C1.44772 16 1 15.5523 1 15V9.00002C1 8.44774 1.44772 8.00002 2 8.00002H5.64922L10.3753 4.21915C10.6755 3.97902 11.0867 3.9322 11.4332 4.09872ZM10 7.08065L6.62469 9.78089C6.44738 9.92274 6.22707 10 6 10H3V14H6C6.22707 14 6.44738 14.0773 6.62469 14.2192L10 16.9194V7.08065ZM14.6201 6.21976C15.0511 5.87433 15.6804 5.94362 16.0259 6.37454C17.2609 7.91515 18.0002 9.8726 18.0002 12C18.0002 14.1274 17.2609 16.0849 16.0259 17.6255C15.6804 18.0564 15.0511 18.1257 14.6201 17.7803C14.1892 17.4348 14.1199 16.8055 14.4654 16.3745C15.4262 15.176 16.0002 13.6564 16.0002 12C16.0002 10.3436 15.4262 8.82407 14.4654 7.62548C14.1199 7.19456 14.1892 6.5652 14.6201 6.21976Z" fill="white"/>
</svg>
