<svg viewBox="0 0 64 65" fill="none" xmlns="http://www.w3.org/2000/svg">
<rect y="0.973389" width="64" height="64" rx="32" fill="#05525B"/>
<path d="M42.75 35H34C33.2044 35 32.4413 35.3161 31.8787 35.8787C31.3161 36.4413 31 37.2044 31 38V46.75C31 46.8163 30.9737 46.8799 30.9268 46.9268C30.8799 46.9737 30.8163 47 30.75 47H25C23.9391 47 22.9217 46.5786 22.1716 45.8284C21.4214 45.0783 21 44.0609 21 43V23C21 21.9391 21.4214 20.9217 22.1716 20.1716C22.9217 19.4214 23.9391 19 25 19H39C40.0609 19 41.0783 19.4214 41.8284 20.1716C42.5786 20.9217 43 21.9391 43 23V34.75C43 34.8163 42.9737 34.8799 42.9268 34.9268C42.8799 34.9737 42.8163 35 42.75 35ZM37 25H27C26.7348 25 26.4804 25.1054 26.2929 25.2929C26.1054 25.4804 26 25.7348 26 26C26 26.2652 26.1054 26.5196 26.2929 26.7071C26.4804 26.8946 26.7348 27 27 27H37C37.2652 27 37.5196 26.8946 37.7071 26.7071C37.8946 26.5196 38 26.2652 38 26C38 25.7348 37.8946 25.4804 37.7071 25.2929C37.5196 25.1054 37.2652 25 37 25ZM37 30H27C26.7348 30 26.4804 30.1054 26.2929 30.2929C26.1054 30.4804 26 30.7348 26 31C26 31.2652 26.1054 31.5196 26.2929 31.7071C26.4804 31.8946 26.7348 32 27 32H37C37.2652 32 37.5196 31.8946 37.7071 31.7071C37.8946 31.5196 38 31.2652 38 31C38 30.7348 37.8946 30.4804 37.7071 30.2929C37.5196 30.1054 37.2652 30 37 30Z" fill="white"/>
<path d="M42.2013 37.2131L33.2131 46.2012C33.1956 46.2186 33.1734 46.2304 33.1492 46.2352C33.1251 46.24 33.1 46.2375 33.0772 46.2281C33.0545 46.2186 33.035 46.2027 33.0212 46.1822C33.0075 46.1618 33.0001 46.1377 33 46.1131V37.9999C33 37.7347 33.1054 37.4804 33.2929 37.2928C33.4804 37.1053 33.7348 36.9999 34 36.9999H42.1131C42.1378 37.0001 42.1618 37.0074 42.1823 37.0212C42.2028 37.0349 42.2187 37.0544 42.2281 37.0772C42.2375 37.1 42.24 37.125 42.2352 37.1492C42.2304 37.1734 42.2186 37.1956 42.2013 37.2131Z" fill="white"/>
</svg>
