<svg fill="none" xmlns="http://www.w3.org/2000/svg">
	<circle cx="16" cy="16" r="16" fill="#050404"/>
	<path d="M12.301 10.685a.753.753 0 00-.492.097h-.013a3.766 3.766 0 00-.917.754c-.22.254-.34.511-.37.758a1.02 1.02 0 00.037.436l.016.01c.248.726.57 1.425.965 2.084a12.25 12.25 0 001.86 2.543l.022.031.035.026.021.025.026.022c.767.73 1.624 1.358 2.55 1.87 1.059.576 1.702.849 2.087.962v.006c.113.035.216.05.32.05a1.47 1.47 0 00.883-.38 3.61 3.61 0 00.746-.92v-.006c.185-.348.122-.676-.144-.9a11.123 11.123 0 00-1.724-1.237c-.41-.222-.828-.088-.996.138l-.36.455c-.186.225-.521.194-.521.194l-.01.005c-2.503-.639-3.171-3.173-3.171-3.173s-.031-.345.2-.52l.452-.364c.216-.176.366-.592.134-1.003a10.828 10.828 0 00-1.234-1.723.686.686 0 00-.404-.241h.002zm4.23-1.102a.458.458 0 100 .917c1.16 0 2.122.378 2.884 1.104.391.397.696.867.896 1.383.2.516.293 1.067.269 1.618a.458.458 0 10.916.039 4.91 4.91 0 00-.33-1.99 4.987 4.987 0 00-1.104-1.699l-.01-.009c-.944-.903-2.14-1.363-3.52-1.363z" fill="#fff"/>
	<path d="M16.5 11.09a.458.458 0 100 .917h.015c.836.06 1.445.339 1.871.796.437.471.664 1.057.646 1.781a.459.459 0 00.917.021c.022-.95-.284-1.77-.891-2.425v-.002c-.62-.666-1.472-1.018-2.497-1.086l-.016-.002H16.5z" fill="#fff"/>
	<path d="M16.482 12.626a.459.459 0 10-.047.915c.383.02.627.135.781.29.155.156.27.406.292.798a.457.457 0 00.66.403.457.457 0 00.255-.452c-.03-.55-.202-1.036-.555-1.393-.355-.358-.838-.532-1.386-.561z" fill="#fff"/>
	<path fill-rule="evenodd" clip-rule="evenodd" d="M11.478 7.185a20.304 20.304 0 018.859 0l.31.07a4.725 4.725 0 013.55 3.449c.74 2.917.74 5.973 0 8.891a4.724 4.724 0 01-3.55 3.45l-.311.068a20.304 20.304 0 01-5.57.458l-2.433 2.176a.687.687 0 01-1.136-.399l-.403-2.403a4.725 4.725 0 01-3.176-3.35 18.074 18.074 0 010-8.891 4.725 4.725 0 013.55-3.45l.31-.069zm8.559 1.341a18.93 18.93 0 00-8.26 0l-.31.07a3.35 3.35 0 00-2.516 2.446 16.7 16.7 0 000 8.215 3.35 3.35 0 002.516 2.446l.083.018a.687.687 0 01.528.557l.27 1.612 1.715-1.536a.687.687 0 01.507-.174c1.832.13 3.674-.007 5.467-.408l.31-.07a3.35 3.35 0 002.517-2.445 16.7 16.7 0 000-8.215 3.35 3.35 0 00-2.516-2.446l-.311-.07z" fill="#fff"/>
</svg>