<svg version="1.1" id="Layer_1" xmlns="http://www.w3.org/2000/svg" xmlns:xlink="http://www.w3.org/1999/xlink" x="0px" y="0px" viewBox="0 0 952 306.3" style="enable-background:new 0 0 952 306.3;" xml:space="preserve" class="sfwed_logo">
<style type="text/css">
	.logo0{fill:#000000;}
	.logo1{fill:#000000;}
	.logo2{fill:none;}
</style>
<path class="logo0" d="M741.3,10.7C702,25.4,671.1,56.7,656.7,96c-29.3,80,6.8,156.6,69.2,190.8H13.3v0H0v19.4h12.6c0,0,0.1,0,0.1,0
	c0,0,784.6,0.1,786.5,0.1c84.3,0,152.8-69.2,152.8-153.5C952,49.8,849.6-29.7,741.3,10.7 M852.2,276.3
	c-113.7,44.5-220.9-62.8-176.5-176.5c12.6-32.2,38.2-57.8,70.4-70.4c113.7-44.5,221,62.8,176.5,176.5
	C910,238.1,884.4,263.7,852.2,276.3"></path>
<path class="logo0" d="M799.2,43.7c-10.4,0-20.5,1.5-30.1,4.2c0.7-0.1,1.1-0.1,1.1-0.1l17.9,65c3.5-1,7.2-1.5,11-1.5
	c22.9,0,41.5,18.6,41.5,41.5c0,22.9-18.6,41.5-41.5,41.5c-22.9,0-41.5-18.6-41.5-41.5c0-4.2,0.6-8.3,1.8-12.1L694.8,121
	c0,0,0-0.1,0.1-0.3c-3.1,10.2-4.8,21-4.8,32.1c0,60.3,48.9,109.1,109.1,109.1c60.3,0,109.1-48.9,109.1-109.1
	C908.3,92.5,859.5,43.7,799.2,43.7"></path>
<polygon class="logo1" points="101.1,178.3 88.1,178.3 88.1,265.2 125,265.2 125,256.5 101.1,256.5 "></polygon>
<rect x="157.7" y="178.3" class="logo1" width="12.8" height="86.8"></rect>
<polygon class="logo1" points="255.4,178.3 243.3,178.3 221.8,219.3 221.8,178.3 208.8,178.3 208.8,265.2 221.8,265.2 221.8,234.5 
	227.8,224.5 245.7,265.2 258.4,265.2 236.9,216.6 "></polygon>
<path class="logo1" d="M316.4,178.3h-12.6L284,265.2h12.2l4.5-21.9h19.1l4.3,21.9h12.4L316.4,178.3z M302.4,234.6l7.7-39.1l7.9,39.1
	H302.4z"></path>
<polygon class="logo1" points="369,265.2 382,265.2 382,224.6 399.9,224.6 399.9,216 382,216 382,187 405.1,187 405.1,178.3 
	369,178.3 "></polygon>
<rect x="437.9" y="178.3" class="logo1" width="12.8" height="86.8"></rect>
<polygon class="logo1" points="502,178.3 489,178.3 489,265.2 525.9,265.2 525.9,256.5 502,256.5 "></polygon>
<polygon class="logo1" points="618.1,178.3 605.4,178.3 588.8,248.8 572.2,178.3 559.4,178.3 557.7,265.2 568.3,265.2 569.4,202.1 
	585.1,265.2 592.5,265.2 608.3,202.1 609.3,265.2 619.8,265.2 "></polygon>
<path class="logo1" d="M44.9,219.5c-0.4-0.3-1-0.8-1.8-1.4c-8.3-6.7-12.5-12.4-12.5-17.3c0-3.5,1.1-6.3,3.3-8.5
	c2.2-2.1,5.1-3.2,8.7-3.2c2.1,0,4.1,0.4,6.2,1.1c2.1,0.8,4.3,1.9,6.5,3.5v-11.4c-2.4-1.3-4.8-2.3-7.3-2.9c-2.4-0.6-5-0.9-7.6-0.9
	c-6,0-11,2.1-15.1,6.4c-4.1,4.3-6.1,9.6-6.1,16c0,4.4,1,8.4,3,11.9c2,3.5,5.5,7.4,10.6,11.5c0.5,0.4,1.2,1,2.1,1.7
	c7.9,6.4,11.8,12.1,11.8,17.1c0,3.4-1,6.1-3.1,8.2c-2.1,2-4.8,3.1-8.3,3.1c-2,0-4.2-0.4-6.4-1.2c-2.3-0.8-4.8-2-7.5-3.7v11.7
	c2.6,1.4,5.1,2.5,7.6,3.2c2.4,0.7,4.8,1,7.2,1c6.5,0,11.8-2.1,15.9-6.3c4.1-4.2,6.2-9.6,6.2-16.1c0-4.6-1-8.8-3-12.4
	C53.2,227.2,49.7,223.4,44.9,219.5"></path>
<rect x="-463.7" y="-386.9" class="logo2" width="1920" height="1080"></rect>
</svg>