<svg viewBox="0 0 177 36" fill="none" xmlns="http://www.w3.org/2000/svg" class="sfwed_logo">
	<path fill-rule="evenodd" clip-rule="evenodd" d="M22.3612 10.7246C20.9223 9.76319 19.2306 9.25 17.5 9.25V0.5C20.9612 0.5 24.3446 1.52636 27.2225 3.44928C30.1004 5.3722 32.3433 8.10534 33.6679 11.303C34.9924 14.5007 35.339 18.0194 34.6637 21.4141C33.9885 24.8087 32.3218 27.927 29.8743 30.3743C27.427 32.8218 24.3087 34.4885 20.9141 35.1637C17.5194 35.839 14.0007 35.4924 10.803 34.1679C7.60533 32.8433 4.8722 30.6004 2.94928 27.7225C1.02636 24.8446 0 21.4612 0 18H8.75C8.75 19.7306 9.26319 21.4223 10.2246 22.8612C11.1861 24.3002 12.5527 25.4217 14.1516 26.084C15.7504 26.7462 17.5097 26.9195 19.207 26.5818C20.9044 26.2443 22.4634 25.4109 23.6872 24.1872C24.9109 22.9634 25.7443 21.4044 26.0818 19.707C26.4195 18.0097 26.2462 16.2504 25.584 14.6516C24.9217 13.0527 23.8002 11.6861 22.3612 10.7246Z" fill="#007EFF"/>
	<path fill-rule="evenodd" clip-rule="evenodd" d="M8.75 0.500005C8.75 1.64907 8.52368 2.78689 8.08395 3.84849C7.64422 4.91008 6.9997 5.87467 6.18718 6.68719C5.37467 7.49971 4.41008 8.14422 3.34848 8.58395C2.28688 9.02368 1.14906 9.25 3.82471e-07 9.25L0 18C2.29813 18 4.57376 17.5474 6.69697 16.6679C8.82017 15.7884 10.7494 14.4994 12.3743 12.8743C13.9994 11.2494 15.2884 9.32018 16.1679 7.19697C17.0474 5.07376 17.5 2.79813 17.5 0.5L8.75 0.500005Z" fill="#007EFF"/>
	<path d="M109.917 13.1459H105.671V26.6317H109.917V13.1459Z" fill="#007EFF"/>
	<path d="M106.144 10.6208C106.587 11.0648 107.142 11.2867 107.808 11.2867C108.474 11.2867 109.02 11.0648 109.445 10.6208C109.871 10.1583 110.084 9.60333 110.084 8.95587C110.084 8.28993 109.871 7.73493 109.445 7.29097C109.02 6.84698 108.474 6.625 107.808 6.625C107.142 6.625 106.587 6.84698 106.144 7.29097C105.718 7.73493 105.505 8.28993 105.505 8.95587C105.505 9.60333 105.718 10.1583 106.144 10.6208Z" fill="#007EFF"/>
	<path d="M44.7617 26.6317V7.04122H49.1182V22.8024H57.8036V26.6317H44.7617Z" fill="#007EFF"/>
	<path fill-rule="evenodd" clip-rule="evenodd" d="M65.649 26.9369C64.2616 26.9369 63.0037 26.6317 61.8752 26.0212C60.7653 25.3923 59.8866 24.5413 59.2391 23.4683C58.5917 22.3954 58.2679 21.193 58.2679 19.861C58.2679 18.5291 58.5917 17.336 59.2391 16.2815C59.8866 15.227 60.7653 14.3946 61.8752 13.7842C62.9852 13.1551 64.2431 12.8407 65.649 12.8407C67.0549 12.8407 68.3129 13.1459 69.4228 13.7563C70.5327 14.3668 71.4115 15.2086 72.0589 16.2815C72.7064 17.336 73.0302 18.5291 73.0302 19.861C73.0302 21.193 72.7064 22.3954 72.0589 23.4683C71.4115 24.5413 70.5327 25.3923 69.4228 26.0212C68.3129 26.6317 67.0549 26.9369 65.649 26.9369ZM65.649 23.0799C66.2595 23.0799 66.796 22.9504 67.2585 22.6914C67.7209 22.4139 68.0724 22.0347 68.3129 21.5537C68.5719 21.0543 68.7014 20.49 68.7014 19.861C68.7014 19.2321 68.5719 18.6864 68.3129 18.2239C68.0539 17.7429 67.6932 17.373 67.2307 17.114C66.7867 16.8364 66.2595 16.6977 65.649 16.6977C65.0571 16.6977 64.5299 16.8364 64.0674 17.114C63.6049 17.373 63.2442 17.7429 62.9852 18.2239C62.7262 18.7049 62.5967 19.2598 62.5967 19.8888C62.5967 20.4993 62.7262 21.0543 62.9852 21.5537C63.2442 22.0347 63.6049 22.4139 64.0674 22.6914C64.5299 22.9504 65.0571 23.0799 65.649 23.0799Z" fill="#007EFF"/>
	<path fill-rule="evenodd" clip-rule="evenodd" d="M76.3925 31.9039C77.5209 32.4218 78.8251 32.6808 80.3051 32.6808C81.748 32.6808 83.0337 32.3941 84.1621 31.8206C85.2906 31.2472 86.1784 30.4518 86.8259 29.4343C87.4733 28.4169 87.7975 27.2145 87.7975 25.827V13.1459H83.6348V14.052C83.3252 13.7914 82.9737 13.5727 82.5804 13.3957C81.8589 13.0442 81.0357 12.8684 80.1108 12.8684C78.8714 12.8684 77.7706 13.1644 76.8088 13.7563C75.8467 14.3298 75.0883 15.1253 74.5333 16.1427C73.9783 17.1417 73.7009 18.2701 73.7009 19.5281C73.7009 20.7675 73.9783 21.8959 74.5333 22.9134C75.0883 23.9308 75.8467 24.7356 76.8088 25.3275C77.7706 25.9195 78.8714 26.2155 80.1108 26.2155C81.0172 26.2155 81.8404 26.0398 82.5804 25.6883C82.9388 25.518 83.2626 25.3174 83.5516 25.0863V25.938C83.5516 26.8814 83.2464 27.6121 82.6359 28.1301C82.044 28.6481 81.2208 28.9071 80.1663 28.9071C79.3154 28.9071 78.5846 28.7591 77.9742 28.4631C77.3822 28.1672 76.8457 27.7324 76.3647 27.1589L73.7564 29.7673C74.4038 30.6922 75.2826 31.4045 76.3925 31.9039ZM82.4417 22.0532C82.0161 22.3122 81.5075 22.4417 80.9155 22.4417C80.3235 22.4417 79.8055 22.3122 79.3616 22.0532C78.9361 21.7942 78.6031 21.4427 78.3627 20.9987C78.1221 20.5363 78.0019 20.046 78.0019 19.5281C78.0019 18.9731 78.1221 18.4736 78.3627 18.0297C78.6031 17.5857 78.9453 17.2342 79.3893 16.9752C79.8333 16.7162 80.342 16.5867 80.9155 16.5867C81.5075 16.5867 82.0161 16.7162 82.4417 16.9752C82.8856 17.2342 83.2186 17.5857 83.4406 18.0297C83.6811 18.4736 83.8013 18.9731 83.8013 19.5281C83.8013 20.083 83.6811 20.5825 83.4406 21.0265C83.2186 21.452 82.8856 21.7942 82.4417 22.0532Z" fill="#007EFF"/>
	<path fill-rule="evenodd" clip-rule="evenodd" d="M96.7321 26.9369C95.3444 26.9369 94.0861 26.6317 92.9583 26.0212C91.8479 25.3923 90.9694 24.5413 90.3219 23.4683C89.6744 22.3954 89.3506 21.193 89.3506 19.861C89.3506 18.5291 89.6744 17.336 90.3219 16.2815C90.9694 15.227 91.8479 14.3946 92.9583 13.7842C94.0678 13.1551 95.326 12.8407 96.7321 12.8407C98.1374 12.8407 99.3956 13.1459 100.505 13.7563C101.616 14.3668 102.494 15.2086 103.142 16.2815C103.789 17.336 104.113 18.5291 104.113 19.861C104.113 21.193 103.789 22.3954 103.142 23.4683C102.494 24.5413 101.616 25.3923 100.505 26.0212C99.3956 26.6317 98.1374 26.9369 96.7321 26.9369ZM96.7321 23.0799C97.342 23.0799 97.8784 22.9504 98.3413 22.6914C98.8033 22.4139 99.155 22.0347 99.3956 21.5537C99.6546 21.0543 99.7841 20.49 99.7841 19.861C99.7841 19.2321 99.6546 18.6864 99.3956 18.2239C99.1366 17.7429 98.7761 17.373 98.3133 17.114C97.8696 16.8364 97.342 16.6977 96.7321 16.6977C96.1398 16.6977 95.6121 16.8364 95.1501 17.114C94.6873 17.373 94.3268 17.7429 94.0678 18.2239C93.8088 18.7049 93.6793 19.2598 93.6793 19.8888C93.6793 20.4993 93.8088 21.0543 94.0678 21.5537C94.3268 22.0347 94.6873 22.4139 95.1501 22.6914C95.6121 22.9504 96.1398 23.0799 96.7321 23.0799Z" fill="#007EFF"/>
	<path fill-rule="evenodd" clip-rule="evenodd" d="M120.121 26.9092C119.215 26.9092 118.382 26.7335 117.624 26.382C117.225 26.197 116.864 25.9762 116.542 25.7194V32.3202H112.352V13.1459H116.597V14.0767C116.905 13.8248 117.247 13.607 117.624 13.4234C118.382 13.0534 119.215 12.8684 120.121 12.8684C121.398 12.8684 122.526 13.1737 123.506 13.7842C124.506 14.3946 125.283 15.227 125.837 16.2815C126.411 17.336 126.697 18.5384 126.697 19.8888C126.697 21.2393 126.411 22.4417 125.837 23.4961C125.283 24.5506 124.506 25.383 123.506 25.9935C122.526 26.604 121.398 26.9092 120.121 26.9092ZM119.345 23.0799C119.955 23.0799 120.482 22.9411 120.926 22.6637C121.389 22.3862 121.749 22.0069 122.008 21.526C122.267 21.045 122.397 20.4993 122.397 19.8888C122.397 19.2598 122.267 18.7049 122.008 18.2239C121.749 17.7429 121.389 17.373 120.926 17.114C120.482 16.8364 119.964 16.6977 119.372 16.6977C118.78 16.6977 118.253 16.8364 117.791 17.114C117.346 17.373 116.995 17.7429 116.736 18.2239C116.477 18.7049 116.348 19.2598 116.348 19.8888C116.348 20.4993 116.468 21.045 116.708 21.526C116.967 22.0069 117.328 22.3862 117.791 22.6637C118.253 22.9411 118.771 23.0799 119.345 23.0799Z" fill="#007EFF"/>
	<path d="M130.853 26.6594C131.63 26.863 132.416 26.9646 133.211 26.9646C134.894 26.9646 136.226 26.5762 137.207 25.7992C138.205 25.0223 138.705 23.9771 138.705 22.6637C138.705 21.8127 138.548 21.1282 138.233 20.6103C137.919 20.0738 137.512 19.6483 137.013 19.3339C136.513 19.0194 135.986 18.7696 135.431 18.5846C134.876 18.3996 134.348 18.2424 133.85 18.1129C133.35 17.9834 132.943 17.8354 132.628 17.6689C132.314 17.5024 132.157 17.2804 132.157 17.0029C132.157 16.7439 132.277 16.5497 132.517 16.4202C132.758 16.2722 133.118 16.1983 133.599 16.1983C134.099 16.1983 134.607 16.3 135.125 16.5035C135.662 16.7069 136.143 17.0585 136.568 17.558L138.982 15.1161C138.373 14.3391 137.577 13.7563 136.596 13.3679C135.635 12.961 134.58 12.7574 133.433 12.7574C132.342 12.7574 131.389 12.9424 130.575 13.3124C129.761 13.6824 129.132 14.1911 128.688 14.8385C128.244 15.4675 128.022 16.2168 128.022 17.0862C128.022 17.9002 128.18 18.5754 128.494 19.1119C128.808 19.6298 129.216 20.0368 129.714 20.3328C130.214 20.6288 130.742 20.86 131.296 21.0265C131.851 21.193 132.379 21.3502 132.878 21.4983C133.377 21.6278 133.785 21.785 134.099 21.97C134.432 22.1365 134.599 22.3862 134.599 22.7191C134.599 22.9781 134.46 23.1816 134.182 23.3296C133.923 23.4776 133.544 23.5516 133.045 23.5516C132.323 23.5516 131.657 23.4221 131.047 23.1631C130.436 22.8857 129.909 22.5064 129.465 22.0254L127.051 24.4673C127.514 24.9668 128.069 25.4108 128.716 25.7992C129.382 26.1692 130.094 26.4559 130.853 26.6594Z" fill="#007EFF"/>
	<path d="M146.447 26.9369C145.208 26.9369 144.107 26.6872 143.146 26.1877C142.202 25.6697 141.462 24.9668 140.926 24.0788C140.389 23.1724 140.121 22.1365 140.121 20.971V13.1459H144.366V20.9155C144.366 21.3779 144.44 21.7757 144.589 22.1087C144.755 22.4417 144.995 22.7007 145.31 22.8857C145.625 23.0706 146.003 23.1631 146.447 23.1631C147.076 23.1631 147.576 22.9689 147.946 22.5804C148.316 22.1734 148.501 21.6185 148.501 20.9155V13.1459H152.746V20.9432C152.746 22.1272 152.478 23.1724 151.941 24.0788C151.405 24.9668 150.665 25.6697 149.721 26.1877C148.778 26.6872 147.687 26.9369 146.447 26.9369Z" fill="#007EFF"/>
	<path d="M159.102 13.1459H154.857V26.6317H159.102V18.7511C159.102 18.2887 159.195 17.9002 159.38 17.5857C159.583 17.2712 159.852 17.0307 160.185 16.8643C160.518 16.6792 160.897 16.5867 161.322 16.5867C161.933 16.5867 162.441 16.781 162.848 17.1695C163.274 17.5394 163.487 18.0667 163.487 18.7511V26.6317H167.732V18.7511C167.732 18.2887 167.825 17.9002 168.01 17.5857C168.214 17.2712 168.481 17.0307 168.815 16.8643C169.147 16.6792 169.527 16.5867 169.952 16.5867C170.563 16.5867 171.071 16.781 171.478 17.1695C171.903 17.5394 172.116 18.0667 172.116 18.7511V26.6317H176.362V18.2794C176.362 17.151 176.122 16.189 175.641 15.3936C175.178 14.5795 174.54 13.9599 173.726 13.5344C172.931 13.0904 172.015 12.8684 170.979 12.8684C169.924 12.8684 168.971 13.0997 168.121 13.5622C167.568 13.8568 167.085 14.2371 166.671 14.7029C166.285 14.2156 165.816 13.8169 165.262 13.5066C164.523 13.0812 163.681 12.8684 162.738 12.8684C161.739 12.8684 160.842 13.0812 160.046 13.5066C159.7 13.6836 159.386 13.8956 159.102 14.1427V13.1459Z" fill="#007EFF"/>
</svg>
