<svg viewBox="0 0 24 24" fill="none" xmlns="http://www.w3.org/2000/svg"><path fill-rule="evenodd" clip-rule="evenodd" d="M18.75 3.4a1 1 0 10-1.5 1.324A10.955 10.955 0 0120 12c0 2.79-1.038 5.336-2.75 7.276a1 1 0 101.5 1.323A12.954 12.954 0 0022 12a12.96 12.96 0 00-3.25-8.6zm-7.317.699A1 1 0 0112 5v14a1 1 0 01-1.625.78L5.65 16H2a1 1 0 01-1-1V9a1 1 0 011-1h3.65l4.725-3.78a1 1 0 011.058-.121zM10 7.08l-3.375 2.7A1 1 0 016 10H3v4h3a1 1 0 01.625.22L10 16.92V7.08zm4.62-.861a1 1 0 011.406.155A8.966 8.966 0 0118 12a8.97 8.97 0 01-1.974 5.625 1 1 0 01-1.56-1.25A6.966 6.966 0 0016 12a6.966 6.966 0 00-1.535-4.375 1 1 0 01.155-1.405z" fill="#fff"/></svg>