<svg viewBox="0 0 24 24" fill="none" xmlns="http://www.w3.org/2000/svg"><path fill-rule="evenodd" clip-rule="evenodd" d="M11.433 4.099A1 1 0 0112 5v14a1 1 0 01-1.625.78L5.65 16H2a1 1 0 01-1-1V9a1 1 0 011-1h3.65l4.725-3.78a1 1 0 011.058-.121zM10 7.08l-3.375 2.7A1 1 0 016 10H3v4h3a1 1 0 01.625.22L10 16.92V7.08zm10 6.333l-2.293 2.293a1 1 0 01-1.414-1.414L18.586 12l-2.293-2.293a1 1 0 011.414-1.414L20 10.586l2.293-2.293a1 1 0 111.414 1.414L21.414 12l2.293 2.293a1 1 0 01-1.414 1.414L20 13.414z" fill="#fff"/></svg>