<svg viewBox="0 0 32 32" fill="none" xmlns="http://www.w3.org/2000/svg"><path class="colored-part" d="M23.3 10.5c-.2-.4-.4-.8-.7-1.1-.3-.3-.7-.5-1.1-.7-1.1-.4-3.4-.4-4.9-.4h-1.4c-1.5 0-3.8 0-4.9.4-.4.2-.8.4-1.1.7s-.5.7-.7 1.1c-.4 1.1-.4 3.4-.4 4.9v1.2c0 1.5 0 3.8.4 4.9.2.4.4.8.7 1.1s.7.5 1.1.7c1.1.4 3.4.4 4.9.4h1.4c1.5 0 3.8 0 4.9-.4.4-.2.8-.4 1.1-.7s.5-.7.7-1.1c.4-1.1.4-3.4.4-4.9v-1.4c0-1.4 0-3.7-.4-4.7zM20 18.7c-1.5 2.2-4.5 2.8-6.7 1.3-2.2-1.5-2.8-4.5-1.3-6.7 1.5-2.2 4.5-2.8 6.7-1.3 2.2 1.5 2.8 4.5 1.3 6.7zm2-7.3c-.1.1-.1.3-.2.4-.1.1-.2.2-.4.2s-.3.1-.4.1c-.2 0-.4-.1-.6-.2-.2-.1-.3-.3-.4-.5s-.1-.4-.1-.6c0-.2.2-.4.3-.6.2-.2.4-.3.6-.3.2 0 .4 0 .6.1s.4.2.5.4.2.4.2.6c0 .1 0 .3-.1.4z" fill="#050404"/><path class="colored-part" d="M14.3 13.4c-1.4 1-1.8 2.9-.9 4.3 1 1.4 2.9 1.8 4.3.9 1.4-1 1.8-2.9.9-4.3-1-1.5-2.9-1.9-4.3-.9z" fill="#050404"/><path class="colored-part" d="M16 0C7.2 0 0 7.2 0 16s7.2 16 16 16 16-7.2 16-16S24.8 0 16 0zm9.3 19.9c-.1 1.5-.4 2.8-1.5 3.9s-2.4 1.4-3.9 1.5c-1.5.1-6.2.1-7.7 0s-2.8-.4-3.9-1.5-1.4-2.4-1.5-3.9c-.1-1.5-.1-6.2 0-7.7s.4-2.8 1.5-3.9 2.4-1.4 3.9-1.5c1.5-.1 6.2-.1 7.7 0s2.8.4 3.9 1.5 1.4 2.4 1.5 3.9c.1 1.5.1 6.1 0 7.7z" fill="#050404"/></svg>