<svg viewBox="0 0 64 65" fill="none" xmlns="http://www.w3.org/2000/svg"><rect y=".64" width="64" height="64" rx="32" fill="#05525B"/><path d="M24 45.333a2.569 2.569 0 01-1.884-.784 2.563 2.563 0 01-.782-1.882V29.333c0-.733.26-1.361.784-1.884A2.563 2.563 0 0124 26.667h1.334V24c0-1.845.65-3.417 1.95-4.717 1.3-1.3 2.873-1.95 4.716-1.95 1.845 0 3.417.65 4.718 1.95 1.3 1.301 1.95 2.873 1.949 4.717v2.667H40c.733 0 1.361.26 1.884.784a2.56 2.56 0 01.783 1.882v13.334a2.57 2.57 0 01-.784 1.884 2.563 2.563 0 01-1.883.782H24zm8-6.666c.733 0 1.361-.262 1.884-.784.523-.523.784-1.15.783-1.883 0-.733-.261-1.361-.784-1.884A2.563 2.563 0 0032 33.333c-.733 0-1.361.262-1.884.784A2.562 2.562 0 0029.334 36c0 .733.26 1.361.784 1.884.522.523 1.15.783 1.882.783zm-4-12h8V24c0-1.111-.389-2.056-1.166-2.833C34.056 20.389 33.11 20 32 20s-2.055.389-2.833 1.167C28.389 21.944 28 22.889 28 24v2.667z" fill="#fff"/></svg>