<svg viewBox="0 0 177 36" fill="none" xmlns="http://www.w3.org/2000/svg" class="sfwed_logo"><path fill-rule="evenodd" clip-rule="evenodd" d="M22.361 10.725A8.75 8.75 0 0017.5 9.25V.5A17.5 17.5 0 110 18h8.75a8.75 8.75 0 1013.611-7.275z" fill="#007EFF"/><path fill-rule="evenodd" clip-rule="evenodd" d="M8.75.5A8.75 8.75 0 010 9.25V18A17.5 17.5 0 0017.5.5H8.75z" fill="#007EFF"/><path d="M109.917 13.146h-4.246v13.486h4.246V13.146zm-3.773-2.526c.443.445.998.667 1.664.667.666 0 1.212-.222 1.637-.666a2.372 2.372 0 00.639-1.665c0-.666-.213-1.221-.639-1.665-.425-.444-.971-.666-1.637-.666s-1.221.222-1.664.666c-.426.444-.639.999-.639 1.665 0 .647.213 1.202.639 1.665zM44.762 26.632V7.042h4.356v15.76h8.686v3.83H44.762z" fill="#007EFF"/><path fill-rule="evenodd" clip-rule="evenodd" d="M65.649 26.937c-1.387 0-2.645-.305-3.774-.916a7.126 7.126 0 01-2.636-2.553c-.647-1.073-.971-2.275-.971-3.607 0-1.332.324-2.525.971-3.58a6.983 6.983 0 012.636-2.497c1.11-.629 2.368-.943 3.774-.943 1.406 0 2.664.305 3.774.915a6.916 6.916 0 012.636 2.526c.647 1.054.971 2.247.971 3.579 0 1.332-.324 2.534-.971 3.607a7.125 7.125 0 01-2.636 2.553c-1.11.61-2.368.916-3.774.916zm0-3.857c.61 0 1.147-.13 1.61-.389a2.72 2.72 0 001.054-1.137c.259-.5.388-1.064.388-1.693s-.13-1.175-.388-1.637a2.72 2.72 0 00-1.082-1.11c-.444-.278-.971-.416-1.582-.416-.592 0-1.12.138-1.582.416a2.72 2.72 0 00-1.082 1.11c-.259.48-.388 1.036-.388 1.665 0 .61.13 1.165.388 1.665.26.48.62.86 1.082 1.137.463.26.99.389 1.582.389zm10.743 8.824c1.129.518 2.433.777 3.913.777 1.443 0 2.729-.287 3.857-.86 1.129-.574 2.016-1.37 2.664-2.387.647-1.017.972-2.22.972-3.607V13.146h-4.163v.906c-.31-.26-.661-.48-1.055-.656-.721-.352-1.544-.528-2.47-.528-1.239 0-2.34.296-3.301.888a6.143 6.143 0 00-2.276 2.387c-.555.999-.832 2.127-.832 3.385 0 1.24.277 2.368.832 3.385a6.348 6.348 0 002.276 2.415c.962.591 2.062.887 3.302.887.906 0 1.73-.175 2.47-.527.358-.17.682-.37.97-.602v.852c0 .943-.305 1.674-.915 2.192-.592.518-1.415.777-2.47.777-.85 0-1.581-.148-2.192-.444-.592-.296-1.128-.73-1.61-1.304l-2.608 2.608c.648.925 1.527 1.637 2.636 2.137zm6.05-9.85c-.426.258-.934.388-1.526.388-.593 0-1.11-.13-1.554-.389a2.737 2.737 0 01-1-1.054 3.142 3.142 0 01-.36-1.47c0-.556.12-1.055.36-1.5a2.688 2.688 0 011.027-1.054c.444-.259.953-.388 1.526-.388.592 0 1.101.13 1.527.388.444.26.777.61.999 1.055.24.444.36.943.36 1.498s-.12 1.055-.36 1.498a2.537 2.537 0 01-1 1.027zm14.29 4.883c-1.388 0-2.646-.305-3.774-.916a7.123 7.123 0 01-2.636-2.553c-.648-1.073-.971-2.275-.971-3.607 0-1.332.323-2.525.97-3.58a6.98 6.98 0 012.637-2.497c1.11-.629 2.368-.943 3.774-.943 1.405 0 2.664.305 3.773.915a6.915 6.915 0 012.637 2.526c.647 1.054.971 2.247.971 3.579 0 1.332-.324 2.534-.971 3.607a7.124 7.124 0 01-2.637 2.553c-1.11.61-2.368.916-3.773.916zm0-3.857c.61 0 1.146-.13 1.61-.389a2.723 2.723 0 001.054-1.137c.259-.5.388-1.064.388-1.693s-.13-1.175-.388-1.637a2.719 2.719 0 00-1.083-1.11c-.443-.278-.971-.416-1.58-.416-.593 0-1.12.138-1.583.416a2.719 2.719 0 00-1.082 1.11c-.26.48-.389 1.036-.389 1.665 0 .61.13 1.165.389 1.665.259.48.62.86 1.082 1.137.462.26.99.389 1.582.389zm23.389 3.83a5.873 5.873 0 01-2.497-.528 5.307 5.307 0 01-1.082-.663v6.601h-4.19V13.146h4.245v.93c.308-.251.65-.469 1.027-.653a5.617 5.617 0 012.497-.555c1.277 0 2.405.306 3.385.916 1 .61 1.777 1.443 2.331 2.498.574 1.054.86 2.256.86 3.607 0 1.35-.286 2.553-.86 3.607a6.303 6.303 0 01-2.331 2.498c-.98.61-2.108.915-3.385.915zm-.776-3.83c.61 0 1.137-.139 1.581-.416a2.907 2.907 0 001.082-1.138c.259-.481.389-1.027.389-1.637 0-.63-.13-1.184-.389-1.665a2.717 2.717 0 00-1.082-1.11c-.444-.278-.962-.416-1.554-.416-.592 0-1.119.138-1.581.416a2.77 2.77 0 00-1.055 1.11c-.259.48-.388 1.036-.388 1.665 0 .61.12 1.156.36 1.637.259.48.62.86 1.083 1.138.462.277.98.416 1.554.416z" fill="#007EFF"/><path d="M130.853 26.66a9.265 9.265 0 002.358.305c1.683 0 3.015-.389 3.996-1.166.998-.777 1.498-1.822 1.498-3.135 0-.851-.157-1.536-.472-2.054a3.672 3.672 0 00-1.22-1.276 7.292 7.292 0 00-1.582-.75 24.58 24.58 0 00-1.581-.471c-.5-.13-.907-.278-1.222-.444-.314-.167-.471-.389-.471-.666 0-.26.12-.453.36-.583.241-.148.601-.222 1.082-.222.5 0 1.008.102 1.526.305.537.204 1.018.555 1.443 1.055l2.414-2.442c-.609-.777-1.405-1.36-2.386-1.748-.961-.407-2.016-.61-3.163-.61-1.091 0-2.044.184-2.858.554-.814.37-1.443.88-1.887 1.527-.444.628-.666 1.378-.666 2.247 0 .814.158 1.49.472 2.026.314.518.722.925 1.22 1.22.5.297 1.028.528 1.582.694.555.167 1.083.324 1.582.472.499.13.907.287 1.221.472.333.167.5.416.5.75 0 .258-.139.462-.417.61-.259.148-.638.222-1.137.222a5.06 5.06 0 01-1.998-.389 4.865 4.865 0 01-1.582-1.138l-2.414 2.442a7.52 7.52 0 001.665 1.332c.666.37 1.378.657 2.137.86zm15.594.277c-1.239 0-2.34-.25-3.301-.75a5.792 5.792 0 01-2.22-2.108c-.537-.907-.805-1.942-.805-3.108v-7.825h4.245v7.77c0 .462.074.86.223 1.193.166.333.406.592.721.777.315.185.693.277 1.137.277.629 0 1.129-.194 1.499-.583.37-.407.555-.961.555-1.664v-7.77h4.245v7.797c0 1.184-.268 2.23-.805 3.136a5.792 5.792 0 01-2.22 2.109c-.943.5-2.034.749-3.274.749zm12.655-13.791h-4.245v13.486h4.245v-7.88c0-.463.093-.852.278-1.166.203-.315.472-.555.805-.722a2.3 2.3 0 011.137-.277c.611 0 1.119.194 1.526.582.426.37.639.898.639 1.582v7.88h4.245v-7.88c0-.462.093-.85.278-1.165.204-.315.471-.555.805-.722a2.298 2.298 0 011.137-.277c.611 0 1.119.194 1.526.582.425.37.638.898.638 1.582v7.88h4.246V18.28c0-1.128-.24-2.09-.721-2.885a4.636 4.636 0 00-1.915-1.86c-.795-.444-1.711-.666-2.747-.666-1.055 0-2.008.232-2.858.694a5.187 5.187 0 00-1.45 1.14 4.72 4.72 0 00-1.409-1.195c-.739-.426-1.581-.639-2.524-.639-.999 0-1.896.213-2.692.639-.346.177-.66.389-.944.636v-.997z" fill="#007EFF"/></svg>