<svg version="1.1" id="Layer_1" xmlns="http://www.w3.org/2000/svg" x="0" y="0" viewBox="0 0 952 306.3" xml:space="preserve" class="sfwed_logo"><style>.logo0{fill:#000}</style><path class="logo0" d="M741.3 10.7c-39.3 14.7-70.2 46-84.6 85.3-29.3 80 6.8 156.6 69.2 190.8H0v19.4h12.7l786.5.1c84.3 0 152.8-69.2 152.8-153.5 0-103-102.4-182.5-210.7-142.1m110.9 265.6c-113.7 44.5-220.9-62.8-176.5-176.5 12.6-32.2 38.2-57.8 70.4-70.4 113.7-44.5 221 62.8 176.5 176.5-12.6 32.2-38.2 57.8-70.4 70.4"/><path class="logo0" d="M799.2 43.7c-10.4 0-20.5 1.5-30.1 4.2.7-.1 1.1-.1 1.1-.1l17.9 65c3.5-1 7.2-1.5 11-1.5 22.9 0 41.5 18.6 41.5 41.5s-18.6 41.5-41.5 41.5-41.5-18.6-41.5-41.5c0-4.2.6-8.3 1.8-12.1L694.8 121s0-.1.1-.3c-3.1 10.2-4.8 21-4.8 32.1 0 60.3 48.9 109.1 109.1 109.1 60.3 0 109.1-48.9 109.1-109.1 0-60.3-48.8-109.1-109.1-109.1"/><path d="M101.1 178.3h-13v86.9H125v-8.7h-23.9zm56.6 0h12.8v86.8h-12.8zm97.7 0h-12.1l-21.5 41v-41h-13v86.9h13v-30.7l6-10 17.9 40.7h12.7l-21.5-48.6zm61 0h-12.6L284 265.2h12.2l4.5-21.9h19.1l4.3 21.9h12.4l-20.1-86.9zm-14 56.3l7.7-39.1 7.9 39.1h-15.6zm66.6 30.6h13v-40.6h17.9V216H382v-29h23.1v-8.7H369zm68.9-86.9h12.8v86.8h-12.8zm64.1 0h-13v86.9h36.9v-8.7H502zm116.1 0h-12.7l-16.6 70.5-16.6-70.5h-12.8l-1.7 86.9h10.6l1.1-63.1 15.7 63.1h7.4l15.8-63.1 1 63.1h10.5zM44.9 219.5c-.4-.3-1-.8-1.8-1.4-8.3-6.7-12.5-12.4-12.5-17.3 0-3.5 1.1-6.3 3.3-8.5 2.2-2.1 5.1-3.2 8.7-3.2 2.1 0 4.1.4 6.2 1.1 2.1.8 4.3 1.9 6.5 3.5v-11.4c-2.4-1.3-4.8-2.3-7.3-2.9-2.4-.6-5-.9-7.6-.9-6 0-11 2.1-15.1 6.4-4.1 4.3-6.1 9.6-6.1 16 0 4.4 1 8.4 3 11.9s5.5 7.4 10.6 11.5c.5.4 1.2 1 2.1 1.7 7.9 6.4 11.8 12.1 11.8 17.1 0 3.4-1 6.1-3.1 8.2-2.1 2-4.8 3.1-8.3 3.1-2 0-4.2-.4-6.4-1.2-2.3-.8-4.8-2-7.5-3.7v11.7c2.6 1.4 5.1 2.5 7.6 3.2 2.4.7 4.8 1 7.2 1 6.5 0 11.8-2.1 15.9-6.3 4.1-4.2 6.2-9.6 6.2-16.1 0-4.6-1-8.8-3-12.4-2.1-3.4-5.6-7.2-10.4-11.1"/><path fill="none" d="M-463.7-386.9h1920v1080h-1920z"/></svg>